<svg width="41" height="28" viewBox="0 0 41 28" fill="none" xmlns="http://www.w3.org/2000/svg">
<path d="M12.9999 22C9.68745 22 6.99995 19.3125 6.99995 16V1.5C6.99995 0.6875 7.62495 0 8.49995 0H32.9999C37.3749 0 40.9999 3.625 40.9999 8C40.9999 12.4375 37.3749 16 32.9999 16H30.9999C30.9999 19.3125 28.3124 22 24.9999 22H12.9999ZM32.9999 4H30.9999V12H32.9999C35.1874 12 36.9999 10.25 36.9999 8C36.9999 5.8125 35.1874 4 32.9999 4ZM35.9374 28H3.99995C0.999946 28 0.187446 24 1.74995 24H38.1874C39.7499 24 38.9374 28 35.9374 28Z" fill="#FEA116"/>
</svg>
