<svg width="16" height="16" viewBox="0 0 16 16" fill="none" xmlns="http://www.w3.org/2000/svg">
<path d="M16 14.5C16 15.3438 15.3125 16 14.5 16H1.5C0.65625 16 0 15.3438 0 14.5V6.28128C0 5.81253 0.21875 5.37503 0.5625 5.09378C1.34375 4.50003 1.96875 4.00003 5.6875 1.31253C6.21875 0.93753 7.25 3.01776e-05 8 0.0312802C8.71875 3.01776e-05 9.75 0.93753 10.2812 1.31253C14 4.00003 14.625 4.50003 15.4062 5.09378C15.75 5.37503 16 5.81253 16 6.28128V14.5ZM13.9375 8.37503C13.8438 8.25003 13.6875 8.21878 13.5625 8.31253C12.875 8.84378 11.8438 9.59378 10.2812 10.7188C9.75 11.0938 8.71875 12.0313 8 12C7.25 12.0313 6.21875 11.0938 5.6875 10.7188C4.125 9.59378 3.09375 8.84378 2.40625 8.31253C2.28125 8.21878 2.125 8.25003 2.03125 8.37503L1.75 8.78128C1.71875 8.81253 1.71875 8.87503 1.71875 8.93753C1.71875 9.00003 1.75 9.09378 1.8125 9.12503C2.53125 9.65628 3.53125 10.4063 5.09375 11.5313C5.75 12 6.875 13.0313 8 13C9.09375 13.0313 10.2188 12 10.875 11.5313C12.4375 10.4063 13.4375 9.65628 14.1562 9.12503C14.2188 9.09378 14.25 9.00003 14.25 8.93753C14.25 8.87503 14.25 8.81253 14.2188 8.78128L13.9375 8.37503Z" fill="#FEA116"/>
</svg>
