<svg width="33" height="28" viewBox="0 0 33 28" fill="none" xmlns="http://www.w3.org/2000/svg">
<path d="M29.4102 14C31.0352 14 32.4102 15.375 32.4102 17C32.4102 18.6875 31.0352 20 29.4102 20H3.41016C1.72266 20 0.410156 18.6875 0.410156 17C0.410156 15.375 1.72266 14 3.41016 14H29.4102ZM30.4102 22C30.9102 22 31.4102 22.5 31.4102 23V24C31.4102 26.25 29.5977 28 27.4102 28H5.41016C3.16016 28 1.41016 26.25 1.41016 24V23C1.41016 22.5 1.84766 22 2.41016 22H30.4102ZM4.03516 12C1.91016 12 0.660156 9.3125 1.84766 7.3125C4.41016 3.25 9.91016 0.0625 16.4102 0C22.8477 0.0625 28.4102 3.25 30.9102 7.3125C32.0977 9.3125 30.8477 12 28.7227 12H4.03516ZM24.4102 5C23.8477 5 23.4102 5.5 23.4102 6C23.4102 6.5625 23.8477 7 24.4102 7C24.9102 7 25.4102 6.5625 25.4102 6C25.4102 5.5 24.9102 5 24.4102 5ZM16.4102 3C15.8477 3 15.4102 3.5 15.4102 4C15.4102 4.5625 15.8477 5 16.4102 5C16.9102 5 17.4102 4.5625 17.4102 4C17.4102 3.5 16.9102 3 16.4102 3ZM8.41016 5C7.84766 5 7.41016 5.5 7.41016 6C7.41016 6.5625 7.84766 7 8.41016 7C8.91016 7 9.41016 6.5625 9.41016 6C9.41016 5.5 8.91016 5 8.41016 5Z" fill="#FEA116"/>
</svg>
