<svg width="39" height="48" viewBox="0 0 39 48" fill="none" xmlns="http://www.w3.org/2000/svg">
<path d="M19.4062 1.5C19.5 1.875 21 10.3125 21 13.5C21 18.4688 18.375 21.9375 14.5312 23.3438L15.75 45.6562C15.75 46.9688 14.7188 48 13.5 48H7.5C6.1875 48 5.15625 46.9688 5.25 45.6562L6.375 23.3438C2.53125 21.9375 0 18.4688 0 13.5C0 10.3125 1.40625 1.875 1.5 1.5C1.78125 -0.46875 5.71875 -0.46875 6 1.59375V14.8125C6.09375 15.0938 7.40625 15.0938 7.5 14.8125C7.59375 12.4688 8.15625 1.78125 8.25 1.5C8.53125 -0.46875 12.375 -0.46875 12.6562 1.5C12.75 1.78125 13.3125 12.4688 13.4062 14.8125C13.5 15.0938 14.8125 15.0938 14.9062 14.8125V1.59375C15.1875 -0.46875 19.125 -0.46875 19.4062 1.5ZM30.6562 28.2188C15.9375 16.7812 28.9688 0 36.75 0C37.9688 0 39 1.03125 39 2.25V45.75C39 47.0625 37.9688 48 36.75 48H31.5C30.1875 48 29.0625 46.875 29.25 45.5625L30.6562 28.2188Z" fill="#FEA116"/>
</svg>
