<svg width="36" height="33" viewBox="0 0 36 33" fill="none" xmlns="http://www.w3.org/2000/svg">
<path d="M32.4553 16.5702C34.2739 16.5702 35.8128 18.109 35.8128 19.9276V28.8808C35.8128 30.7694 34.2739 32.2383 32.4553 32.2383H23.5021C21.6136 32.2383 20.1447 30.7694 20.1447 28.8808V12.0936C20.1447 5.93827 25.1109 0.9021 31.3362 0.9021H31.8957C32.8051 0.9021 33.5745 1.67151 33.5745 2.58082V5.93827C33.5745 6.91753 32.8051 7.61699 31.8957 7.61699H31.3362C28.8181 7.61699 26.8596 9.64545 26.8596 12.0936V16.5702H32.4553ZM12.3106 16.5702C14.1293 16.5702 15.6681 18.109 15.6681 19.9276V28.8808C15.6681 30.7694 14.1293 32.2383 12.3106 32.2383H3.35745C1.46888 32.2383 0 30.7694 0 28.8808V12.0936C0 5.93827 4.96622 0.9021 11.1915 0.9021H11.7511C12.6604 0.9021 13.4298 1.67151 13.4298 2.58082V5.93827C13.4298 6.91753 12.6604 7.61699 11.7511 7.61699H11.1915C8.6734 7.61699 6.71489 9.64545 6.71489 12.0936V16.5702H12.3106Z" fill="#FEA116"/>
</svg>
