<svg width="48" height="48" viewBox="0 0 48 48" fill="none" xmlns="http://www.w3.org/2000/svg">
<rect x="0.5" y="0.5" width="47" height="47" rx="1.5" fill="#FEA116"/>
<rect x="0.5" y="0.5" width="47" height="47" rx="1.5" stroke="#FEA116"/>
<path d="M23.9984 31.2344C24.1762 31.2344 24.3207 31.1788 24.4318 31.0677C24.5429 30.9566 24.5984 30.8122 24.5984 30.6344V15.901L28.5318 19.8344C28.6651 19.9677 28.8207 20.0344 28.9984 20.0344C29.1762 20.0344 29.3207 19.9677 29.4318 19.8344C29.5429 19.701 29.5984 19.5455 29.5984 19.3677C29.5984 19.1899 29.554 19.0344 29.4651 18.901L24.4651 13.901C24.3318 13.8122 24.1762 13.7677 23.9984 13.7677C23.8207 13.7677 23.6651 13.8122 23.5318 13.901L18.5318 18.901C18.4429 19.0344 18.3984 19.1899 18.3984 19.3677C18.3984 19.5455 18.454 19.701 18.5651 19.8344C18.6762 19.9677 18.8207 20.0344 18.9984 20.0344C19.1762 20.0344 19.3318 19.9677 19.4651 19.8344L23.3984 15.901V30.6344C23.3984 30.8122 23.454 30.9566 23.5651 31.0677C23.6762 31.1788 23.8207 31.2344 23.9984 31.2344Z" fill="white"/>
</svg>
